<svg xmlns="http://www.w3.org/2000/svg" width="39" height="39" viewBox="0 0 39 39">
  <g id="Group_3587" data-name="Group 3587" transform="translate(-1156.999 -228)">
    <g id="Group_3510" data-name="Group 3510" transform="translate(1157.084 228.373)">
      <g id="Group_3508" data-name="Group 3508">
        <circle id="Ellipse_5" data-name="Ellipse 5" cx="19.5" cy="19.5" r="19.5" transform="translate(-0.085 -0.373)" fill="#9d9993"/>
      </g>
    </g>
    <path id="finished-svgrepo-com" d="M31.323,166.072l9.214-13.163a.718.718,0,1,1,1.176.823L32.074,167.5a.718.718,0,0,1-1.02.164l-5.169-3.877a.718.718,0,1,1,.862-1.149Zm10.214-6.859a.718.718,0,0,1,0-1.436h4.308a.718.718,0,0,1,0,1.436Zm-2.872,4.308a.718.718,0,0,1,0-1.436h7.178a.718.718,0,0,1,0,1.436Zm-2.872,4.308a.718.718,0,0,1,0-1.436h10.05a.718.718,0,0,1,0,1.436Z" transform="translate(1140.839 86.315)" fill="#fff"/>
  </g>
</svg>
