<svg xmlns="http://www.w3.org/2000/svg" width="39" height="39" viewBox="0 0 39 39">
  <g id="Group_3507" data-name="Group 3507" transform="translate(-0.147 -0.231)">
    <circle id="Ellipse_5" data-name="Ellipse 5" cx="19.5" cy="19.5" r="19.5" transform="translate(0.147 0.231)" fill="#2fac26"/>
    <g id="verified-database-symbol-for-interface-svgrepo-com" transform="translate(9.889 9.83)">
      <path id="Path_12374" data-name="Path 12374" d="M12.9,17.418a5.744,5.744,0,0,0,.847.192,3.044,3.044,0,0,1-2.857,2.027H3.048A3.051,3.051,0,0,1,0,16.59V7.011A3.051,3.051,0,0,1,3.048,3.963H5.394a3.044,3.044,0,0,1,3-2.613h4.229A3.051,3.051,0,0,1,15.674,4.4V6.474a5.514,5.514,0,0,0-.871-.109V4.4a2.18,2.18,0,0,0-2.177-2.177H8.4A2.18,2.18,0,0,0,6.265,3.963h4.622A3.053,3.053,0,0,1,13.871,6.4a5.723,5.723,0,0,0-.853.177,2.179,2.179,0,0,0-2.131-1.739H3.05A2.18,2.18,0,0,0,.873,7.011V16.59A2.181,2.181,0,0,0,3.05,18.767h7.838A2.181,2.181,0,0,0,12.9,17.418Zm4.29-.849a5.261,5.261,0,1,1,1.925-7.186A5.267,5.267,0,0,1,17.185,16.569Zm-.435-.753a4.391,4.391,0,1,0-6-1.608A4.394,4.394,0,0,0,16.75,15.816Zm1.757.43-2.264,1.306,1.742,3.016,2.264-1.306Zm1.976,3.425L18.22,20.978a1.307,1.307,0,0,0,2.263-1.306ZM8.408,7.117h-5.8v.653h5.8V7.117Zm-1.333,2.9H2.612v.653H7.075ZM2.612,13.577H7.075v-.653H2.612Zm0,2.9h5.8v-.653h-5.8Zm11.094-3.56-1.352-1.5-.646.585,1.913,2.116,3.737-3.112-.558-.669Z" transform="translate(0 -1.35)" fill="#fff"/>
    </g>
  </g>
</svg>
