<svg xmlns="http://www.w3.org/2000/svg" width="39" height="39" viewBox="0 0 39 39">
  <g id="Group_3509" data-name="Group 3509" transform="translate(0.418 0)">
    <g id="Group_3508" data-name="Group 3508" transform="translate(0 0)">
      <circle id="Ellipse_5" data-name="Ellipse 5" cx="19.5" cy="19.5" r="19.5" transform="translate(-0.418 0)" fill="#9d9993"/>
    </g>
    <g id="data-cloud-svgrepo-com" transform="translate(8.421 7.942)">
      <path id="Path_12375" data-name="Path 12375" d="M12.225,78.553H.385A.385.385,0,0,0,0,78.938v3.5a.385.385,0,0,0,.385.385h11.84a.385.385,0,0,0,.385-.385v-3.5A.385.385,0,0,0,12.225,78.553ZM6.305,81.6H1.251V79.578H6.305Zm5.92,2.116H.385A.385.385,0,0,0,0,84.1v3.5a.385.385,0,0,0,.385.385h11.84a.385.385,0,0,0,.385-.385V84.1A.385.385,0,0,0,12.225,83.715Zm-5.92,2.994H1.251V84.687H6.305Zm5.92,2.118H.385A.385.385,0,0,0,0,89.213v3.5a.385.385,0,0,0,.385.385h11.84a.385.385,0,0,0,.385-.385v-3.5A.385.385,0,0,0,12.225,88.827Zm-5.92,3.145H1.251V89.951H6.305Zm20.874-8.486a4.872,4.872,0,0,1-4.867,4.867H13.527a1.28,1.28,0,0,0,.1-.489v-.538h8.684a3.84,3.84,0,1,0-.642-7.621l-.328.055-.185-.277a3.837,3.837,0,0,0-3.586-1.7l-.433.044-.114-.42a3.834,3.834,0,0,0-7.5.464H8.488a4.863,4.863,0,0,1,9.4-1.135,4.864,4.864,0,0,1,3.934,1.906,4.541,4.541,0,0,1,.491-.028A4.873,4.873,0,0,1,27.179,83.487Z" transform="translate(0 -73.552)" fill="#fff"/>
    </g>
  </g>
</svg>
