<svg xmlns="http://www.w3.org/2000/svg" width="39" height="39" viewBox="0 0 39 39">
  <g id="Group_3511" data-name="Group 3511" transform="translate(-0.249 0.373)">
    <g id="Group_3510" data-name="Group 3510" transform="translate(0 0)">
      <g id="Group_3508" data-name="Group 3508">
        <circle id="Ellipse_5" data-name="Ellipse 5" cx="19.5" cy="19.5" r="19.5" transform="translate(0.249 -0.373)" fill="#9d9993"/>
      </g>
    </g>
    <g id="natural-cleaning-svgrepo-com" transform="translate(7.404 7.118)">
      <path id="Path_12376" data-name="Path 12376" d="M24.392,10.495A1.925,1.925,0,0,0,23.427,9.1,1.949,1.949,0,0,0,21.715,9l-3.089,1.279a6.616,6.616,0,0,0-.463-1.109l3.092-1.281A1.947,1.947,0,0,0,22.393,6.6a1.925,1.925,0,0,0-.3-1.668h0a11.714,11.714,0,0,0-2.5-2.5,1.925,1.925,0,0,0-1.668-.3,1.948,1.948,0,0,0-1.284,1.137L15.357,6.361A6.626,6.626,0,0,0,14.248,5.9L15.528,2.81a1.947,1.947,0,0,0-.1-1.712A1.925,1.925,0,0,0,14.03.133h0a11.715,11.715,0,0,0-3.535,0A1.925,1.925,0,0,0,9.1,1.1,1.948,1.948,0,0,0,9,2.81L10.277,5.9a6.617,6.617,0,0,0-1.109.463L7.887,3.27A1.947,1.947,0,0,0,6.6,2.132a1.925,1.925,0,0,0-1.668.3,11.723,11.723,0,0,0-2.5,2.5,1.925,1.925,0,0,0-.3,1.668A1.948,1.948,0,0,0,3.27,7.887L6.361,9.168A6.626,6.626,0,0,0,5.9,10.277L2.81,9A1.948,1.948,0,0,0,1.1,9.1,1.925,1.925,0,0,0,.133,10.5a11.705,11.705,0,0,0,0,3.535A1.925,1.925,0,0,0,1.1,15.424a1.948,1.948,0,0,0,1.712.1L5.9,14.248a6.616,6.616,0,0,0,.463,1.109L3.27,16.638a1.947,1.947,0,0,0-1.137,1.284,1.925,1.925,0,0,0,.3,1.668h0a11.714,11.714,0,0,0,2.5,2.5,1.921,1.921,0,0,0,1.141.376,1.963,1.963,0,0,0,1.811-1.21l1.281-3.092a6.626,6.626,0,0,0,1.109.463L9,21.716a1.947,1.947,0,0,0,.1,1.712,1.925,1.925,0,0,0,1.394.965h0a11.706,11.706,0,0,0,3.535,0,1.925,1.925,0,0,0,1.394-.965,1.948,1.948,0,0,0,.1-1.712l-1.279-3.089a6.616,6.616,0,0,0,1.109-.463l1.281,3.092a1.963,1.963,0,0,0,1.811,1.21,1.921,1.921,0,0,0,1.141-.376,11.714,11.714,0,0,0,2.5-2.5,1.925,1.925,0,0,0,.3-1.668,1.948,1.948,0,0,0-1.137-1.284l-3.092-1.281a6.626,6.626,0,0,0,.463-1.109l3.089,1.279a1.948,1.948,0,0,0,1.712-.1,1.925,1.925,0,0,0,.965-1.394A11.714,11.714,0,0,0,24.392,10.495Zm-1.865,3.251a.043.043,0,0,1-.026.035.07.07,0,0,1-.063,0L18.927,12.33c0-.023,0-.045,0-.068s0-.045,0-.068l3.511-1.454a.069.069,0,0,1,.063,0,.043.043,0,0,1,.026.035A9.831,9.831,0,0,1,22.527,13.746Zm-1.952,4.683a.043.043,0,0,1-.006.043,9.823,9.823,0,0,1-2.1,2.1.043.043,0,0,1-.043.006.069.069,0,0,1-.048-.042L16.926,17.02l.094-.094,3.514,1.455A.07.07,0,0,1,20.575,18.429ZM13.781,22.5a.043.043,0,0,1-.035.026,9.834,9.834,0,0,1-2.966,0h0a.043.043,0,0,1-.035-.026.069.069,0,0,1,0-.063l1.454-3.511.068,0,.068,0,1.454,3.511A.069.069,0,0,1,13.781,22.5ZM6.1,20.575a.043.043,0,0,1-.043-.006,9.823,9.823,0,0,1-2.1-2.1.043.043,0,0,1-.006-.043.069.069,0,0,1,.042-.048l3.514-1.455.094.094L6.144,20.533A.07.07,0,0,1,6.1,20.575ZM3.95,6.1a.043.043,0,0,1,.006-.043,9.823,9.823,0,0,1,2.1-2.1.039.039,0,0,1,.025-.009l.018,0a.069.069,0,0,1,.048.042L7.6,7.506,7.506,7.6,3.992,6.144A.069.069,0,0,1,3.95,6.1Zm6.795-4.072A.043.043,0,0,1,10.78,2a9.83,9.83,0,0,1,2.966,0,.043.043,0,0,1,.035.026.069.069,0,0,1,0,.063L12.33,5.6l-.068,0-.068,0L10.741,2.088A.07.07,0,0,1,10.745,2.024ZM18.429,3.95l.018,0a.039.039,0,0,1,.025.009,9.823,9.823,0,0,1,2.1,2.1.043.043,0,0,1,.006.043.069.069,0,0,1-.042.048L17.02,7.6l-.094-.094,1.455-3.514A.069.069,0,0,1,18.429,3.95ZM12.263,17.042a4.779,4.779,0,1,1,4.779-4.779A4.785,4.785,0,0,1,12.263,17.042ZM5.6,12.33,2.088,13.784a.07.07,0,0,1-.063,0A.043.043,0,0,1,2,13.745a9.823,9.823,0,0,1,0-2.966.043.043,0,0,1,.026-.035.072.072,0,0,1,.036-.01.071.071,0,0,1,.028.006L5.6,12.194c0,.023,0,.045,0,.068S5.6,12.308,5.6,12.33Z" transform="translate(0.001 0.001)" fill="#fff"/>
    </g>
  </g>
</svg>
