<svg id="tick-svgrepo-com" xmlns="http://www.w3.org/2000/svg" width="20.885" height="20.885" viewBox="0 0 20.885 20.885">
  <g id="Group_3517" data-name="Group 3517" transform="translate(0 0)">
    <g id="Group_3516" data-name="Group 3516">
      <path id="Path_12377" data-name="Path 12377" d="M17.826,3.06A10.442,10.442,0,0,0,3.059,17.827,10.442,10.442,0,1,0,17.826,3.06ZM10.442,19.477a9.033,9.033,0,1,1,9.033-9.033A9.044,9.044,0,0,1,10.442,19.477Z" transform="translate(0 -0.001)" fill="#42b61f"/>
    </g>
  </g>
  <g id="Group_3519" data-name="Group 3519" transform="translate(4.147 5.885)">
    <g id="Group_3518" data-name="Group 3518">
      <path id="Path_12378" data-name="Path 12378" d="M113.583,144.95a2.285,2.285,0,0,0-3.233,0l-3.64,3.64-1.148-1.148a2.286,2.286,0,1,0-3.233,3.233l2.764,2.764a2.286,2.286,0,0,0,3.233,0l5.257-5.257A2.289,2.289,0,0,0,113.583,144.95Zm-1,2.237-5.257,5.257a.877.877,0,0,1-1.24,0l-2.764-2.764a.877.877,0,0,1,1.24-1.24l1.646,1.646a.7.7,0,0,0,1,0l4.138-4.138a.877.877,0,0,1,1.24,1.24Z" transform="translate(-101.66 -144.28)" fill="#42b61f"/>
    </g>
  </g>
</svg>
