<svg id="upload-svgrepo-com" xmlns="http://www.w3.org/2000/svg" width="29.4" height="29.406" viewBox="0 0 29.4 29.406">
  <g id="Group_3442" data-name="Group 3442">
    <path id="Path_12319" data-name="Path 12319" d="M152.546,18.406a1.246,1.246,0,0,0,1.734-.06l2.88-3.1V33.082a1.224,1.224,0,1,0,2.448,0V15.244l2.88,3.1a1.227,1.227,0,0,0,1.794-1.674l-5-5.376a1.241,1.241,0,0,0-.894-.39,1.221,1.221,0,0,0-.894.39l-5,5.376a1.226,1.226,0,0,0,.06,1.74Z" transform="translate(-143.684 -10.9)"/>
    <path id="Path_12320" data-name="Path 12320" d="M39.176,335a1.221,1.221,0,0,0-1.224,1.224v6.288h-24.5v-6.288a1.224,1.224,0,1,0-2.448,0v7.512a1.221,1.221,0,0,0,1.224,1.224H39.176a1.221,1.221,0,0,0,1.224-1.224v-7.512A1.221,1.221,0,0,0,39.176,335Z" transform="translate(-11 -315.554)"/>
  </g>
</svg>
