<svg xmlns="http://www.w3.org/2000/svg" width="45.255" height="50.001" viewBox="0 0 45.255 50.001">
  <path id="ust-white-logo" d="M11.608,0h5.078V10.949c0,5.091-3.047,8.157-8.3,8.157C2.917,19.106,0,15.909,0,10.949V0H5.078V10.973c0,2.186,1.248,3.431,3.278,3.431s3.251-1.245,3.251-3.431ZM8.6,37.915l1.608.39c4.534,1.093,6.2,3.195,6.2,5.823,0,3.461-3.091,5.872-8.257,5.872C5.263,50,1.7,48.789.325,46.3l3.149-2.546a6.239,6.239,0,0,0,4.654,2.073c1.676,0,3.007-.559,3.007-1.565,0-.807-.608-1.118-2.268-1.534l-1.687-.416C2.671,41.19.925,38.648.925,36.2c0-3.166,2.8-5.847,7.7-5.847,2.9,0,5.794,1.229,7.125,3.455L12.6,36.356a5.882,5.882,0,0,0-4-1.67c-1.755,0-2.611.716-2.611,1.384C5.991,36.956,6.81,37.472,8.6,37.915ZM29.117,30.9H45.255V35.3H39.736V49.411h-5.1V35.3H29.117ZM40.782,12.68H33.59V5.488h7.191Z" fill="#fff" fill-rule="evenodd"/>
</svg>
